<?xml version="1.0" encoding="UTF-8"?>
<!DOCTYPE svg PUBLIC "-//W3C//DTD SVG 1.1//EN" "http://www.w3.org/Graphics/SVG/1.1/DTD/svg11.dtd">
<svg xmlns="http://www.w3.org/2000/svg" version="1.1" width="536px" height="750px" style="shape-rendering:geometricPrecision; text-rendering:geometricPrecision; image-rendering:optimizeQuality; fill-rule:evenodd; clip-rule:evenodd" xmlns:xlink="http://www.w3.org/1999/xlink">
<g><path style="opacity:0.991" fill="#0093d1" d="M 526.5,-0.5 C 527.167,-0.5 527.833,-0.5 528.5,-0.5C 530.406,50.009 532.739,100.342 535.5,150.5C 535.5,153.167 535.5,155.833 535.5,158.5C 523.586,158.179 511.753,158.512 500,159.5C 446.144,247.889 392.311,336.222 338.5,424.5C 291.997,424.168 245.664,424.501 199.5,425.5C 198.535,424.279 198.702,422.946 200,421.5C 223.295,384.565 245.795,347.232 267.5,309.5C 298.637,259.506 329.637,209.339 360.5,159C 348.833,158.667 337.167,158.333 325.5,158C 392.399,104.922 459.399,52.0885 526.5,-0.5 Z"/></g>
<g><path style="opacity:0.989" fill="#004899" d="M 267.5,309.5 C 245.795,347.232 223.295,384.565 200,421.5C 198.702,422.946 198.535,424.279 199.5,425.5C 221.414,461.93 243.581,498.264 266,534.5C 267.009,536.025 267.509,537.692 267.5,539.5C 224.822,609.528 182.156,679.528 139.5,749.5C 92.8333,749.5 46.1667,749.5 -0.5,749.5C -0.5,748.833 -0.5,748.167 -0.5,747.5C 65.7255,640.064 131.726,532.398 197.5,424.5C 154.626,353.917 111.626,283.417 68.5,213C 115.167,212.333 161.833,212.333 208.5,213C 228.052,245.278 247.719,277.445 267.5,309.5 Z"/></g>
<g><path style="opacity:0.994" fill="#01b5ec" d="M 338.5,424.5 C 380.446,493.465 422.446,562.465 464.5,631.5C 417.833,632.833 371.167,632.833 324.5,631.5C 305.976,600.434 286.976,569.767 267.5,539.5C 267.509,537.692 267.009,536.025 266,534.5C 243.581,498.264 221.414,461.93 199.5,425.5C 245.664,424.501 291.997,424.168 338.5,424.5 Z"/></g>
</svg>
